<svg version="1.1" id="Layer_1" xmlns="http://www.w3.org/2000/svg" xmlns:xlink="http://www.w3.org/1999/xlink" x="0px" y="0px"
	 width="100%" viewBox="0 0 1865 497" enable-background="new 0 0 1865 497" xml:space="preserve">
<path fill="#FEFEFE" opacity="1.000000" stroke="none" 
	d="
M1348.000000,498.000000 
	C898.666687,498.000000 449.833344,498.000000 1.000000,498.000000 
	C1.000000,332.333344 1.000000,166.666672 1.000000,1.000000 
	C622.666687,1.000000 1244.333374,1.000000 1866.000000,1.000000 
	C1866.000000,166.666672 1866.000000,332.333344 1866.000000,498.000000 
	C1693.500000,498.000000 1521.000000,498.000000 1348.000000,498.000000 
M1008.230774,223.325165 
	C1006.100830,221.346375 1003.970825,219.367584 1001.842407,217.387085 
	C993.639099,222.203079 993.514709,223.101013 998.928467,230.417191 
	C1003.363586,236.410782 1007.467224,242.649338 1011.884705,248.656555 
	C1014.281250,251.915573 1017.026245,254.918304 1020.043091,258.694885 
	C1035.398193,308.272644 1050.791138,357.838745 1066.025024,407.453705 
	C1067.066895,410.847137 1068.313843,412.181854 1072.075562,412.118164 
	C1087.068481,411.864319 1102.071899,411.837402 1117.063599,412.125732 
	C1121.311646,412.207458 1122.994141,410.882629 1124.223999,406.838440 
	C1138.119263,361.147736 1152.216064,315.518311 1166.288086,269.881470 
	C1170.027710,257.753479 1173.867676,245.656448 1178.016113,232.413681 
	C1178.937256,235.038437 1179.518433,236.513931 1179.976929,238.026627 
	C1197.114624,294.567871 1214.281616,351.100311 1231.273804,407.685272 
	C1232.368164,411.329895 1234.082886,412.222382 1237.560547,412.084625 
	C1243.882812,411.834229 1250.222168,412.013519 1256.554321,412.013519 
	C1266.999878,412.013519 1277.445312,412.013550 1287.978882,412.013550 
	C1315.107178,324.209198 1342.102661,236.834793 1369.227539,149.041565 
	C1352.740601,149.041565 1336.923462,149.026520 1321.106445,149.066162 
	C1319.619263,149.069885 1318.109985,149.310776 1316.650146,149.624100 
	C1308.703125,151.329788 1303.004150,155.604889 1300.891602,163.790222 
	C1287.494995,215.696518 1274.119507,267.608246 1260.700806,319.508789 
	C1260.316284,320.996399 1259.527222,322.379456 1258.669678,324.424744 
	C1254.252075,309.931152 1250.144897,296.399628 1246.003418,282.878632 
	C1234.006348,243.710205 1221.993652,204.546570 1209.991211,165.379807 
	C1206.442993,153.801239 1200.200195,149.090988 1188.045288,148.966614 
	C1182.380493,148.908646 1176.708618,148.839325 1171.050049,149.047974 
	C1159.673340,149.467438 1153.215698,154.472153 1149.856201,165.275650 
	C1140.558716,195.174637 1131.251343,225.070663 1122.011963,254.987625 
	C1114.703369,278.653290 1107.489746,302.348267 1100.074341,326.551392 
	C1098.880371,320.901215 1097.984497,315.560364 1096.613403,310.344482 
	C1083.996460,262.350494 1071.303833,214.376404 1058.617310,166.400711 
	C1055.179688,153.401001 1049.815674,149.155884 1036.191650,149.038315 
	C1021.028809,148.907440 1005.863953,148.999786 990.700012,149.017197 
	C989.439453,149.018646 988.178955,149.189270 986.443542,149.315948 
	C987.205078,151.905838 987.836609,154.118698 988.506104,156.320023 
	C995.335876,178.777084 1002.171875,201.232269 1008.230774,223.325165 
M798.059753,192.500000 
	C798.059753,265.567169 798.059753,338.634308 798.059753,412.013733 
	C811.636536,412.013733 824.450684,412.051117 837.264465,411.995819 
	C842.574158,411.972870 850.044922,413.793488 852.613464,411.073944 
	C855.455566,408.064758 854.067810,400.818756 854.079102,395.416931 
	C854.157349,358.091339 854.089661,320.765350 854.198975,283.439911 
	C854.205200,281.316101 854.678650,278.390137 856.086121,277.205231 
	C864.750610,269.910553 874.388977,264.481598 886.110352,263.989838 
	C898.346985,263.476440 907.505920,270.178955 910.120911,282.081665 
	C911.145813,286.747070 911.561584,291.632507 911.576782,296.419861 
	C911.692566,332.912109 911.721069,369.405273 911.541016,405.897003 
	C911.518005,410.557800 912.559204,412.240051 917.537109,412.130493 
	C932.360291,411.804321 947.197998,411.852203 962.023804,412.110870 
	C966.519958,412.189331 967.979858,411.045380 967.953735,406.324127 
	C967.755371,370.499146 968.062988,334.670380 967.702881,298.847931 
	C967.604919,289.093048 966.647949,279.161316 964.549133,269.649658 
	C959.811401,248.178436 947.203674,232.437958 926.128479,225.387772 
	C908.011169,219.327057 889.643921,220.081726 872.338928,229.290863 
	C866.404358,232.449081 860.781799,236.193573 854.118164,240.212082 
	C854.118164,237.727127 854.118103,235.982590 854.118164,234.238052 
	C854.118835,205.243912 854.020081,176.249084 854.224426,147.256378 
	C854.256104,142.759109 852.921692,141.662704 848.574768,141.736984 
	C833.249023,141.998901 817.916077,141.830826 802.585815,141.852493 
	C801.160400,141.854507 799.735168,142.045166 798.059753,142.166321 
	C798.059753,158.886124 798.059753,175.193069 798.059753,192.500000 
M1698.973877,334.494354 
	C1698.657715,332.738373 1698.341675,330.982422 1697.897461,328.515045 
	C1700.158081,328.515045 1701.930908,328.515045 1703.703735,328.515045 
	C1736.866943,328.514771 1770.030273,328.541321 1803.193481,328.499451 
	C1814.580933,328.485077 1817.971191,325.404938 1818.111694,314.078827 
	C1818.210449,306.111176 1818.198730,298.016876 1816.958740,290.181305 
	C1813.163574,266.198578 1802.313110,246.424286 1780.743286,233.754288 
	C1763.420410,223.578979 1744.524902,220.943451 1724.835449,222.722260 
	C1690.489380,225.825211 1665.358154,242.573685 1650.510620,273.877136 
	C1641.350464,293.189392 1640.217529,313.740234 1643.353882,334.508850 
	C1647.846558,364.258301 1661.232300,388.865814 1688.728149,402.992645 
	C1722.396118,420.290588 1756.805908,418.585327 1790.790039,403.155365 
	C1801.016357,398.512207 1809.792236,391.674194 1817.108643,382.659760 
	C1811.843018,376.149078 1806.560181,369.935852 1801.652100,363.439575 
	C1798.214233,358.889587 1793.763184,357.155151 1788.528198,358.324860 
	C1784.373413,359.253174 1780.403931,361.122620 1776.446777,362.798004 
	C1770.785034,365.195099 1765.409424,368.475922 1759.563354,370.195129 
	C1730.880859,378.630249 1704.420898,368.404388 1698.973877,334.494354 
M525.212891,414.604858 
	C553.120483,413.101013 577.788330,404.420990 597.031250,382.760803 
	C591.516663,375.951935 586.244873,369.723633 581.304565,363.242706 
	C578.107117,359.048187 573.908447,357.095734 569.104126,358.288116 
	C563.859131,359.589813 558.675598,361.642273 553.882080,364.160767 
	C541.956421,370.426361 529.567200,374.047668 515.978577,372.746368 
	C492.365601,370.485046 479.212616,352.203033 478.518127,328.515320 
	C480.329285,328.515320 482.132233,328.515320 483.935181,328.515289 
	C516.925049,328.514771 549.914856,328.538086 582.904724,328.500671 
	C594.495361,328.487518 597.847534,325.398865 598.011414,313.704041 
	C598.118347,306.072266 598.018005,298.331818 596.889038,290.808350 
	C593.543030,268.510712 584.007507,249.577286 564.893921,236.515427 
	C547.023926,224.303406 527.004395,221.338409 505.806335,222.579926 
	C469.348541,224.715210 438.949890,247.488907 427.052887,282.053436 
	C421.104645,299.334930 420.566223,317.033478 423.235474,334.823883 
	C427.093353,360.536591 438.104248,382.363342 459.822357,397.771301 
	C479.152924,411.485352 501.016571,415.770966 525.212891,414.604858 
M217.803406,114.440826 
	C250.147354,120.689865 275.447601,137.123901 291.865814,166.110092 
	C302.146240,184.260010 305.926788,204.148392 305.980988,224.743958 
	C306.131805,282.069275 306.034058,339.395233 306.034485,396.720947 
	C306.034546,403.341583 306.034485,409.962189 306.034485,416.960358 
	C316.912415,416.960358 326.562897,417.005371 336.212738,416.944214 
	C342.440979,416.904755 345.416534,414.491486 346.582855,408.420654 
	C347.018188,406.154633 347.035095,403.784271 347.033142,401.461670 
	C346.982697,341.469696 346.837189,281.477753 346.871704,221.485870 
	C346.882263,203.148697 344.319397,185.313416 338.090790,168.037308 
	C326.660828,136.334259 306.609985,111.560333 278.111603,93.649536 
	C253.220428,78.005814 225.597168,72.224243 196.643661,71.862167 
	C164.986160,71.466263 133.324127,71.429947 101.663979,71.255791 
	C100.232864,71.247925 98.800720,71.426247 96.851097,71.550987 
	C99.480972,85.515160 102.019394,98.993736 104.587654,112.630798 
	C131.924835,112.630798 158.738113,112.480408 185.548218,112.706108 
	C196.019211,112.794250 206.483093,113.727882 217.803406,114.440826 
M1483.042847,381.510590 
	C1480.973999,384.871613 1478.905151,388.232635 1476.654053,391.889832 
	C1479.508057,394.048553 1481.860962,396.183716 1484.530762,397.792969 
	C1513.443726,415.220673 1544.370117,419.722290 1576.739258,410.393677 
	C1602.346069,403.013977 1618.406616,386.391357 1621.948242,359.023102 
	C1624.706299,337.709198 1616.980103,320.657715 1598.032837,310.514618 
	C1588.282959,305.295258 1577.488281,302.040680 1567.208740,297.793884 
	C1558.782593,294.312775 1549.936523,291.496277 1542.153442,286.900421 
	C1532.685547,281.309784 1533.727051,269.766083 1543.465454,264.476196 
	C1551.260742,260.241730 1559.765869,260.673309 1567.831787,262.594543 
	C1576.191162,264.585602 1584.120605,268.323822 1592.340332,270.981415 
	C1597.231323,272.562744 1602.722778,273.269623 1606.225342,268.677185 
	C1611.624756,261.598114 1616.245361,253.925217 1621.320801,246.317749 
	C1619.021118,244.276627 1617.369507,242.651337 1615.558594,241.229019 
	C1602.804321,231.212143 1588.235107,225.270950 1572.259399,223.273468 
	C1549.459595,220.422775 1527.518066,222.498444 1507.270752,235.025711 
	C1475.969849,254.391922 1472.835815,306.958679 1506.997192,326.221954 
	C1518.030518,332.443451 1530.606812,335.921631 1542.458252,340.701782 
	C1549.232178,343.433960 1556.277466,345.695007 1562.646606,349.180542 
	C1571.696411,354.133179 1572.692139,365.112305 1564.910645,371.752441 
	C1562.390991,373.902466 1558.830566,375.211212 1555.530151,376.000610 
	C1542.707642,379.067352 1530.792358,376.343323 1519.583130,369.682434 
	C1516.448608,367.819885 1513.203735,366.001923 1509.788574,364.781189 
	C1501.445435,361.798981 1494.291016,364.300232 1489.321899,371.618408 
	C1487.264404,374.648529 1485.378540,377.795258 1483.042847,381.510590 
M621.760071,356.763611 
	C626.341797,369.647278 632.940186,381.380493 642.747192,390.968079 
	C660.647461,408.467926 682.242676,415.909729 707.267090,414.776123 
	C733.779480,413.575073 757.166748,405.681702 775.975403,386.184082 
	C778.567749,383.496704 778.550537,381.881653 776.179260,379.211334 
	C771.870544,374.359192 767.893677,369.209320 763.839355,364.134918 
	C758.178406,357.049683 751.294861,355.959351 743.757263,361.054535 
	C740.034424,363.571106 736.503052,366.419922 732.601990,368.615448 
	C713.541504,379.342834 687.125610,374.430939 677.940735,348.631073 
	C671.965820,331.847748 671.977783,314.745148 674.983459,297.392029 
	C679.881775,269.111115 703.469849,255.823334 730.065857,266.737976 
	C734.811462,268.685486 739.203369,271.482666 743.807495,273.790009 
	C750.478455,277.133057 755.869446,277.099976 759.893372,272.449768 
	C766.163757,265.203674 771.753540,257.368713 778.454529,248.721527 
	C770.035889,242.906403 762.670715,236.854584 754.458923,232.344040 
	C736.450195,222.452240 716.738342,220.767792 696.689148,222.870667 
	C662.687866,226.436935 637.290161,242.718964 623.877686,274.873230 
	C612.794495,301.443573 613.176636,328.709167 621.760071,356.763611 
M242.830658,152.638290 
	C231.325043,145.507111 218.878052,140.698639 205.357330,140.106537 
	C187.231171,139.312714 169.064850,139.269226 150.915192,139.237747 
	C139.095032,139.217239 127.271309,139.721420 115.455002,140.150757 
	C112.734825,140.249588 109.542130,140.125381 110.536255,144.832840 
	C112.357269,153.455841 113.762894,162.165985 115.390793,170.830566 
	C116.347702,175.923752 119.140617,179.447601 124.506653,180.006439 
	C128.949173,180.469086 133.444046,180.538635 137.917450,180.576736 
	C159.389847,180.759583 180.874542,180.485306 202.331848,181.134476 
	C219.122604,181.642487 231.455063,191.933441 235.293335,208.138596 
	C236.925842,215.031021 237.688171,222.283142 237.718704,229.376633 
	C237.923798,277.013519 237.825821,324.651733 237.825455,372.289520 
	C237.825348,385.281647 237.932602,398.275299 237.751419,411.264923 
	C237.700821,414.893463 238.697525,416.292175 242.512939,416.214905 
	C253.002289,416.002411 263.499329,416.079620 273.991974,416.180939 
	C276.800140,416.208038 278.263519,415.635162 278.252747,412.352478 
	C278.230896,405.698425 278.790131,399.043640 278.815735,392.388031 
	C278.907318,368.569641 278.978638,344.750305 278.867065,320.932220 
	C278.698608,284.966217 279.161926,248.971832 277.840607,213.045288 
	C276.906891,187.658218 264.877899,167.321243 242.830658,152.638290 
M1451.946411,365.500000 
	C1451.946411,318.765381 1451.946411,272.030762 1451.946411,225.171051 
	C1432.998535,225.171051 1414.789917,225.171051 1396.428223,225.171051 
	C1396.428223,287.582886 1396.428223,349.599762 1396.428223,411.675354 
	C1415.010986,411.675354 1433.238403,411.675354 1451.946411,411.675354 
	C1451.946411,396.393341 1451.946411,381.446655 1451.946411,365.500000 
M418.499786,112.551247 
	C435.317352,112.443581 452.135284,112.375557 468.952271,112.210327 
	C476.544067,112.135742 481.053070,108.432045 482.667297,101.044655 
	C483.802826,95.847992 484.952789,90.642227 485.752960,85.388237 
	C486.462189,80.731247 486.697845,76.002136 487.163818,71.080490 
	C460.154236,71.080490 434.027222,71.191513 407.901703,71.042236 
	C389.893707,70.939346 371.952576,71.346352 354.255066,75.129875 
	C341.552124,77.845612 329.364380,81.994644 316.932159,88.205643 
	C324.261780,96.769608 331.152588,104.818947 338.041138,112.870209 
	C341.700836,117.147629 346.294739,118.537628 351.876312,118.042816 
	C373.741211,116.104462 395.623718,114.364487 418.499786,112.551247 
M376.411224,140.846405 
	C370.690033,141.641159 364.968842,142.435898 358.450256,143.341415 
	C360.742249,150.270432 362.769257,156.558441 364.905487,162.809113 
	C366.835266,168.455780 367.325134,176.305618 371.306915,179.072418 
	C375.530334,182.007111 383.119965,180.276138 389.239288,180.271515 
	C411.394531,180.254807 433.549774,180.119171 455.704834,180.000275 
	C460.778717,179.973053 466.314392,178.886292 467.805725,173.835983 
	C471.028076,162.923721 473.015717,151.646866 475.671204,139.792450 
	C472.777740,139.792450 470.981293,139.807785 469.185150,139.789978 
	C457.693695,139.675980 446.199127,139.326340 434.711670,139.487259 
	C415.578796,139.755234 396.450500,140.348862 376.411224,140.846405 
M1450.167114,194.641647 
	C1467.896484,174.477768 1454.733643,145.781754 1431.125000,141.509857 
	C1414.016846,138.414200 1397.557251,147.767303 1392.292236,164.867004 
	C1387.562378,180.228668 1396.371460,197.741745 1412.130737,203.699722 
	C1426.423096,209.103088 1438.840576,205.406921 1450.167114,194.641647 
z"/>
<path fill="#020202" opacity="1.000000" stroke="none" 
	d="
M1009.006104,223.687988 
	C1002.171875,201.232269 995.335876,178.777084 988.506104,156.320023 
	C987.836609,154.118698 987.205078,151.905838 986.443542,149.315948 
	C988.178955,149.189270 989.439453,149.018646 990.700012,149.017197 
	C1005.863953,148.999786 1021.028809,148.907440 1036.191650,149.038315 
	C1049.815674,149.155884 1055.179688,153.401001 1058.617310,166.400711 
	C1071.303833,214.376404 1083.996460,262.350494 1096.613403,310.344482 
	C1097.984497,315.560364 1098.880371,320.901215 1100.074341,326.551392 
	C1107.489746,302.348267 1114.703369,278.653290 1122.011963,254.987625 
	C1131.251343,225.070663 1140.558716,195.174637 1149.856201,165.275650 
	C1153.215698,154.472153 1159.673340,149.467438 1171.050049,149.047974 
	C1176.708618,148.839325 1182.380493,148.908646 1188.045288,148.966614 
	C1200.200195,149.090988 1206.442993,153.801239 1209.991211,165.379807 
	C1221.993652,204.546570 1234.006348,243.710205 1246.003418,282.878632 
	C1250.144897,296.399628 1254.252075,309.931152 1258.669678,324.424744 
	C1259.527222,322.379456 1260.316284,320.996399 1260.700806,319.508789 
	C1274.119507,267.608246 1287.494995,215.696518 1300.891602,163.790222 
	C1303.004150,155.604889 1308.703125,151.329788 1316.650146,149.624100 
	C1318.109985,149.310776 1319.619263,149.069885 1321.106445,149.066162 
	C1336.923462,149.026520 1352.740601,149.041565 1369.227539,149.041565 
	C1342.102661,236.834793 1315.107178,324.209198 1287.978882,412.013550 
	C1277.445312,412.013550 1266.999878,412.013519 1256.554321,412.013519 
	C1250.222168,412.013519 1243.882812,411.834229 1237.560547,412.084625 
	C1234.082886,412.222382 1232.368164,411.329895 1231.273804,407.685272 
	C1214.281616,351.100311 1197.114624,294.567871 1179.976929,238.026627 
	C1179.518433,236.513931 1178.937256,235.038437 1178.016113,232.413681 
	C1173.867676,245.656448 1170.027710,257.753479 1166.288086,269.881470 
	C1152.216064,315.518311 1138.119263,361.147736 1124.223999,406.838440 
	C1122.994141,410.882629 1121.311646,412.207458 1117.063599,412.125732 
	C1102.071899,411.837402 1087.068481,411.864319 1072.075562,412.118164 
	C1068.313843,412.181854 1067.066895,410.847137 1066.025024,407.453705 
	C1050.791138,357.838745 1035.398193,308.272644 1019.848877,257.994141 
	C1016.105164,246.091568 1012.555664,234.889771 1009.006104,223.687988 
z"/>
<path fill="#020202" opacity="1.000000" stroke="none" 
	d="
M798.059753,192.000000 
	C798.059753,175.193069 798.059753,158.886124 798.059753,142.166321 
	C799.735168,142.045166 801.160400,141.854507 802.585815,141.852493 
	C817.916077,141.830826 833.249023,141.998901 848.574768,141.736984 
	C852.921692,141.662704 854.256104,142.759109 854.224426,147.256378 
	C854.020081,176.249084 854.118835,205.243912 854.118164,234.238052 
	C854.118103,235.982590 854.118164,237.727127 854.118164,240.212082 
	C860.781799,236.193573 866.404358,232.449081 872.338928,229.290863 
	C889.643921,220.081726 908.011169,219.327057 926.128479,225.387772 
	C947.203674,232.437958 959.811401,248.178436 964.549133,269.649658 
	C966.647949,279.161316 967.604919,289.093048 967.702881,298.847931 
	C968.062988,334.670380 967.755371,370.499146 967.953735,406.324127 
	C967.979858,411.045380 966.519958,412.189331 962.023804,412.110870 
	C947.197998,411.852203 932.360291,411.804321 917.537109,412.130493 
	C912.559204,412.240051 911.518005,410.557800 911.541016,405.897003 
	C911.721069,369.405273 911.692566,332.912109 911.576782,296.419861 
	C911.561584,291.632507 911.145813,286.747070 910.120911,282.081665 
	C907.505920,270.178955 898.346985,263.476440 886.110352,263.989838 
	C874.388977,264.481598 864.750610,269.910553 856.086121,277.205231 
	C854.678650,278.390137 854.205200,281.316101 854.198975,283.439911 
	C854.089661,320.765350 854.157349,358.091339 854.079102,395.416931 
	C854.067810,400.818756 855.455566,408.064758 852.613464,411.073944 
	C850.044922,413.793488 842.574158,411.972870 837.264465,411.995819 
	C824.450684,412.051117 811.636536,412.013733 798.059753,412.013733 
	C798.059753,338.634308 798.059753,265.567169 798.059753,192.000000 
z"/>
<path fill="#030303" opacity="1.000000" stroke="none" 
	d="
M1699.032227,334.917755 
	C1704.420898,368.404388 1730.880859,378.630249 1759.563354,370.195129 
	C1765.409424,368.475922 1770.785034,365.195099 1776.446777,362.798004 
	C1780.403931,361.122620 1784.373413,359.253174 1788.528198,358.324860 
	C1793.763184,357.155151 1798.214233,358.889587 1801.652100,363.439575 
	C1806.560181,369.935852 1811.843018,376.149078 1817.108643,382.659760 
	C1809.792236,391.674194 1801.016357,398.512207 1790.790039,403.155365 
	C1756.805908,418.585327 1722.396118,420.290588 1688.728149,402.992645 
	C1661.232300,388.865814 1647.846558,364.258301 1643.353882,334.508850 
	C1640.217529,313.740234 1641.350464,293.189392 1650.510620,273.877136 
	C1665.358154,242.573685 1690.489380,225.825211 1724.835449,222.722260 
	C1744.524902,220.943451 1763.420410,223.578979 1780.743286,233.754288 
	C1802.313110,246.424286 1813.163574,266.198578 1816.958740,290.181305 
	C1818.198730,298.016876 1818.210449,306.111176 1818.111694,314.078827 
	C1817.971191,325.404938 1814.580933,328.485077 1803.193481,328.499451 
	C1770.030273,328.541321 1736.866943,328.514771 1703.703735,328.515045 
	C1701.930908,328.515045 1700.158081,328.515045 1697.897461,328.515045 
	C1698.341675,330.982422 1698.657715,332.738373 1699.032227,334.917755 
M1766.307617,282.425568 
	C1760.623413,265.891907 1745.985596,257.947327 1727.775391,261.049896 
	C1709.673950,264.133942 1699.790405,280.761322 1699.269653,295.396057 
	C1722.132935,295.396057 1744.992310,295.396057 1768.560425,295.396057 
	C1767.850464,290.991577 1767.221680,287.091248 1766.307617,282.425568 
z"/>
<path fill="#030303" opacity="1.000000" stroke="none" 
	d="
M524.739258,414.625122 
	C501.016571,415.770966 479.152924,411.485352 459.822357,397.771301 
	C438.104248,382.363342 427.093353,360.536591 423.235474,334.823883 
	C420.566223,317.033478 421.104645,299.334930 427.052887,282.053436 
	C438.949890,247.488907 469.348541,224.715210 505.806335,222.579926 
	C527.004395,221.338409 547.023926,224.303406 564.893921,236.515427 
	C584.007507,249.577286 593.543030,268.510712 596.889038,290.808350 
	C598.018005,298.331818 598.118347,306.072266 598.011414,313.704041 
	C597.847534,325.398865 594.495361,328.487518 582.904724,328.500671 
	C549.914856,328.538086 516.925049,328.514771 483.935181,328.515289 
	C482.132233,328.515320 480.329285,328.515320 478.518127,328.515320 
	C479.212616,352.203033 492.365601,370.485046 515.978577,372.746368 
	C529.567200,374.047668 541.956421,370.426361 553.882080,364.160767 
	C558.675598,361.642273 563.859131,359.589813 569.104126,358.288116 
	C573.908447,357.095734 578.107117,359.048187 581.304565,363.242706 
	C586.244873,369.723633 591.516663,375.951935 597.031250,382.760803 
	C577.788330,404.420990 553.120483,413.101013 524.739258,414.625122 
M512.500000,295.794403 
	C524.232544,295.794403 535.965027,295.794403 547.613831,295.794403 
	C549.264587,275.939148 535.450439,261.273041 515.998230,260.606323 
	C494.027618,259.853271 480.264679,275.780029 479.128082,295.794403 
	C489.931946,295.794403 500.715973,295.794403 512.500000,295.794403 
z"/>
<path fill="#030303" opacity="1.000000" stroke="none" 
	d="
M217.376801,114.358627 
	C206.483093,113.727882 196.019211,112.794250 185.548218,112.706108 
	C158.738113,112.480408 131.924835,112.630798 104.587654,112.630798 
	C102.019394,98.993736 99.480972,85.515160 96.851097,71.550987 
	C98.800720,71.426247 100.232864,71.247925 101.663979,71.255791 
	C133.324127,71.429947 164.986160,71.466263 196.643661,71.862167 
	C225.597168,72.224243 253.220428,78.005814 278.111603,93.649536 
	C306.609985,111.560333 326.660828,136.334259 338.090790,168.037308 
	C344.319397,185.313416 346.882263,203.148697 346.871704,221.485870 
	C346.837189,281.477753 346.982697,341.469696 347.033142,401.461670 
	C347.035095,403.784271 347.018188,406.154633 346.582855,408.420654 
	C345.416534,414.491486 342.440979,416.904755 336.212738,416.944214 
	C326.562897,417.005371 316.912415,416.960358 306.034485,416.960358 
	C306.034485,409.962189 306.034546,403.341583 306.034485,396.720947 
	C306.034058,339.395233 306.131805,282.069275 305.980988,224.743958 
	C305.926788,204.148392 302.146240,184.260010 291.865814,166.110092 
	C275.447601,137.123901 250.147354,120.689865 217.376801,114.358627 
z"/>
<path fill="#030303" opacity="1.000000" stroke="none" 
	d="
M1483.228760,381.199768 
	C1485.378540,377.795258 1487.264404,374.648529 1489.321899,371.618408 
	C1494.291016,364.300232 1501.445435,361.798981 1509.788574,364.781189 
	C1513.203735,366.001923 1516.448608,367.819885 1519.583130,369.682434 
	C1530.792358,376.343323 1542.707642,379.067352 1555.530151,376.000610 
	C1558.830566,375.211212 1562.390991,373.902466 1564.910645,371.752441 
	C1572.692139,365.112305 1571.696411,354.133179 1562.646606,349.180542 
	C1556.277466,345.695007 1549.232178,343.433960 1542.458252,340.701782 
	C1530.606812,335.921631 1518.030518,332.443451 1506.997192,326.221954 
	C1472.835815,306.958679 1475.969849,254.391922 1507.270752,235.025711 
	C1527.518066,222.498444 1549.459595,220.422775 1572.259399,223.273468 
	C1588.235107,225.270950 1602.804321,231.212143 1615.558594,241.229019 
	C1617.369507,242.651337 1619.021118,244.276627 1621.320801,246.317749 
	C1616.245361,253.925217 1611.624756,261.598114 1606.225342,268.677185 
	C1602.722778,273.269623 1597.231323,272.562744 1592.340332,270.981415 
	C1584.120605,268.323822 1576.191162,264.585602 1567.831787,262.594543 
	C1559.765869,260.673309 1551.260742,260.241730 1543.465454,264.476196 
	C1533.727051,269.766083 1532.685547,281.309784 1542.153442,286.900421 
	C1549.936523,291.496277 1558.782593,294.312775 1567.208740,297.793884 
	C1577.488281,302.040680 1588.282959,305.295258 1598.032837,310.514618 
	C1616.980103,320.657715 1624.706299,337.709198 1621.948242,359.023102 
	C1618.406616,386.391357 1602.346069,403.013977 1576.739258,410.393677 
	C1544.370117,419.722290 1513.443726,415.220673 1484.530762,397.792969 
	C1481.860962,396.183716 1479.508057,394.048553 1476.654053,391.889832 
	C1478.905151,388.232635 1480.973999,384.871613 1483.228760,381.199768 
z"/>
<path fill="#030303" opacity="1.000000" stroke="none" 
	d="
M621.622253,356.398071 
	C613.176636,328.709167 612.794495,301.443573 623.877686,274.873230 
	C637.290161,242.718964 662.687866,226.436935 696.689148,222.870667 
	C716.738342,220.767792 736.450195,222.452240 754.458923,232.344040 
	C762.670715,236.854584 770.035889,242.906403 778.454529,248.721527 
	C771.753540,257.368713 766.163757,265.203674 759.893372,272.449768 
	C755.869446,277.099976 750.478455,277.133057 743.807495,273.790009 
	C739.203369,271.482666 734.811462,268.685486 730.065857,266.737976 
	C703.469849,255.823334 679.881775,269.111115 674.983459,297.392029 
	C671.977783,314.745148 671.965820,331.847748 677.940735,348.631073 
	C687.125610,374.430939 713.541504,379.342834 732.601990,368.615448 
	C736.503052,366.419922 740.034424,363.571106 743.757263,361.054535 
	C751.294861,355.959351 758.178406,357.049683 763.839355,364.134918 
	C767.893677,369.209320 771.870544,374.359192 776.179260,379.211334 
	C778.550537,381.881653 778.567749,383.496704 775.975403,386.184082 
	C757.166748,405.681702 733.779480,413.575073 707.267090,414.776123 
	C682.242676,415.909729 660.647461,408.467926 642.747192,390.968079 
	C632.940186,381.380493 626.341797,369.647278 621.622253,356.398071 
z"/>
<path fill="#030303" opacity="1.000000" stroke="none" 
	d="
M243.140442,152.828064 
	C264.877899,167.321243 276.906891,187.658218 277.840607,213.045288 
	C279.161926,248.971832 278.698608,284.966217 278.867065,320.932220 
	C278.978638,344.750305 278.907318,368.569641 278.815735,392.388031 
	C278.790131,399.043640 278.230896,405.698425 278.252747,412.352478 
	C278.263519,415.635162 276.800140,416.208038 273.991974,416.180939 
	C263.499329,416.079620 253.002289,416.002411 242.512939,416.214905 
	C238.697525,416.292175 237.700821,414.893463 237.751419,411.264923 
	C237.932602,398.275299 237.825348,385.281647 237.825455,372.289520 
	C237.825821,324.651733 237.923798,277.013519 237.718704,229.376633 
	C237.688171,222.283142 236.925842,215.031021 235.293335,208.138596 
	C231.455063,191.933441 219.122604,181.642487 202.331848,181.134476 
	C180.874542,180.485306 159.389847,180.759583 137.917450,180.576736 
	C133.444046,180.538635 128.949173,180.469086 124.506653,180.006439 
	C119.140617,179.447601 116.347702,175.923752 115.390793,170.830566 
	C113.762894,162.165985 112.357269,153.455841 110.536255,144.832840 
	C109.542130,140.125381 112.734825,140.249588 115.455002,140.150757 
	C127.271309,139.721420 139.095032,139.217239 150.915192,139.237747 
	C169.064850,139.269226 187.231171,139.312714 205.357330,140.106537 
	C218.878052,140.698639 231.325043,145.507111 243.140442,152.828064 
z"/>
<path fill="#030303" opacity="1.000000" stroke="none" 
	d="
M1451.946411,366.000000 
	C1451.946411,381.446655 1451.946411,396.393341 1451.946411,411.675354 
	C1433.238403,411.675354 1415.010986,411.675354 1396.428223,411.675354 
	C1396.428223,349.599762 1396.428223,287.582886 1396.428223,225.171051 
	C1414.789917,225.171051 1432.998535,225.171051 1451.946411,225.171051 
	C1451.946411,272.030762 1451.946411,318.765381 1451.946411,366.000000 
z"/>
<path fill="#F16826" opacity="1.000000" stroke="none" 
	d="
M417.999725,112.551025 
	C395.623718,114.364487 373.741211,116.104462 351.876312,118.042816 
	C346.294739,118.537628 341.700836,117.147629 338.041138,112.870209 
	C331.152588,104.818947 324.261780,96.769608 316.932159,88.205643 
	C329.364380,81.994644 341.552124,77.845612 354.255066,75.129875 
	C371.952576,71.346352 389.893707,70.939346 407.901703,71.042236 
	C434.027222,71.191513 460.154236,71.080490 487.163818,71.080490 
	C486.697845,76.002136 486.462189,80.731247 485.752960,85.388237 
	C484.952789,90.642227 483.802826,95.847992 482.667297,101.044655 
	C481.053070,108.432045 476.544067,112.135742 468.952271,112.210327 
	C452.135284,112.375557 435.317352,112.443581 417.999725,112.551025 
z"/>
<path fill="#F16826" opacity="1.000000" stroke="none" 
	d="
M376.865753,140.825882 
	C396.450500,140.348862 415.578796,139.755234 434.711670,139.487259 
	C446.199127,139.326340 457.693695,139.675980 469.185150,139.789978 
	C470.981293,139.807785 472.777740,139.792450 475.671204,139.792450 
	C473.015717,151.646866 471.028076,162.923721 467.805725,173.835983 
	C466.314392,178.886292 460.778717,179.973053 455.704834,180.000275 
	C433.549774,180.119171 411.394531,180.254807 389.239288,180.271515 
	C383.119965,180.276138 375.530334,182.007111 371.306915,179.072418 
	C367.325134,176.305618 366.835266,168.455780 364.905487,162.809113 
	C362.769257,156.558441 360.742249,150.270432 358.450256,143.341415 
	C364.968842,142.435898 370.690033,141.641159 376.865753,140.825882 
z"/>
<path fill="#030303" opacity="1.000000" stroke="none" 
	d="
M1449.915771,194.894302 
	C1438.840576,205.406921 1426.423096,209.103088 1412.130737,203.699722 
	C1396.371460,197.741745 1387.562378,180.228668 1392.292236,164.867004 
	C1397.557251,147.767303 1414.016846,138.414200 1431.125000,141.509857 
	C1454.733643,145.781754 1467.896484,174.477768 1449.915771,194.894302 
z"/>
<path fill="#EBEBEB" opacity="1.000000" stroke="none" 
	d="
M1008.618408,223.506577 
	C1012.555664,234.889771 1016.105164,246.091568 1019.634338,257.664978 
	C1017.026245,254.918304 1014.281250,251.915573 1011.884705,248.656555 
	C1007.467224,242.649338 1003.363586,236.410782 998.928467,230.417191 
	C993.514709,223.101013 993.639099,222.203079 1001.841675,217.387939 
	C1003.970825,219.367584 1006.100830,221.346375 1008.618408,223.506577 
z"/>
<path fill="#F9F9F9" opacity="1.000000" stroke="none" 
	d="
M1766.450195,282.808228 
	C1767.221680,287.091248 1767.850464,290.991577 1768.560425,295.396057 
	C1744.992310,295.396057 1722.132935,295.396057 1699.269653,295.396057 
	C1699.790405,280.761322 1709.673950,264.133942 1727.775391,261.049896 
	C1745.985596,257.947327 1760.623413,265.891907 1766.450195,282.808228 
z"/>
<path fill="#F9F9F9" opacity="1.000000" stroke="none" 
	d="
M512.000000,295.794403 
	C500.715973,295.794403 489.931946,295.794403 479.128082,295.794403 
	C480.264679,275.780029 494.027618,259.853271 515.998230,260.606323 
	C535.450439,261.273041 549.264587,275.939148 547.613831,295.794403 
	C535.965027,295.794403 524.232544,295.794403 512.000000,295.794403 
z"/>
</svg>