<svg version="1.1" id="Layer_1" xmlns="http://www.w3.org/2000/svg" xmlns:xlink="http://www.w3.org/1999/xlink" x="0px" y="0px"
	 width="100%" viewBox="0 0 1916 472" enable-background="new 0 0 1916 472" xml:space="preserve">
<path fill="#FEFEFE" opacity="1.000000" stroke="none" 
	d="
M648.000000,473.000000 
	C432.369354,473.000000 216.738708,473.000000 1.054029,473.000000 
	C1.054029,315.728973 1.054029,158.457932 1.054029,1.000000 
	C458.028015,1.000000 915.056091,1.000000 1372.589355,1.340681 
	C1379.946167,10.307076 1396.193726,12.511334 1406.450195,6.248471 
	C1408.818604,4.802184 1410.826294,2.765171 1413.000000,0.999999 
	C1580.968628,1.000000 1748.937256,1.000000 1916.952881,1.000000 
	C1916.952881,158.272614 1916.952881,315.545227 1916.952881,473.000000 
	C1499.305298,473.000000 1081.610596,473.000000 663.456909,472.627625 
	C661.885864,468.479980 659.773987,465.979584 655.455811,465.983582 
	C650.709045,465.987976 649.003174,469.088287 648.000000,473.000000 
M99.775177,263.250305 
	C80.788727,296.150391 61.799965,329.049103 42.817596,361.951538 
	C38.478405,369.472778 37.161297,377.597656 38.600605,386.067444 
	C41.134819,400.980499 52.322098,411.929260 67.525139,414.724365 
	C82.100250,417.404022 96.885536,410.315308 104.674591,396.827759 
	C144.251160,328.296906 183.810181,259.755951 223.380127,191.221298 
	C224.283371,189.656891 225.242874,188.124969 226.625610,185.832779 
	C244.450500,216.725784 261.909668,246.984940 279.764648,277.930115 
	C275.514587,277.930115 272.519623,277.911591 269.524933,277.933167 
	C252.865128,278.053314 236.133575,277.251282 219.562546,278.528717 
	C194.854904,280.433411 180.502457,307.586548 191.993027,329.545166 
	C199.223602,343.362946 211.416489,348.959381 226.616013,348.954041 
	C283.444275,348.933990 340.272552,348.948120 397.100830,348.937347 
	C398.681549,348.937042 400.262238,348.800140 402.515991,348.695770 
	C343.806854,246.615646 285.449829,145.147736 226.739120,43.064869 
	C184.185089,116.859177 142.159958,189.736298 99.775177,263.250305 
M1204.495361,136.926483 
	C1192.427124,136.926483 1180.358765,136.926483 1167.815796,136.926483 
	C1168.284912,139.406311 1168.519043,141.036499 1168.906616,142.629410 
	C1171.347290,152.662842 1173.804565,162.692276 1176.288452,172.715088 
	C1189.548950,226.224503 1202.854370,279.722839 1216.004272,333.259430 
	C1216.875122,336.805054 1218.180664,338.078552 1221.955566,338.035583 
	C1240.285767,337.826721 1258.620117,337.878723 1276.952026,338.001160 
	C1280.103516,338.022217 1281.606934,337.298706 1282.341309,333.892120 
	C1291.597046,290.959351 1301.026978,248.064163 1310.226807,206.007370 
	C1310.351318,206.581131 1310.738892,208.309647 1311.100342,210.043640 
	C1319.763306,251.614441 1328.452515,293.179779 1337.021240,334.769989 
	C1337.623169,337.691223 1339.200684,337.979340 1341.597778,337.968079 
	C1354.097046,337.909332 1366.596802,337.941162 1379.096313,337.941315 
	C1386.578247,337.941437 1394.060059,337.941315 1401.935059,337.941315 
	C1418.430908,270.959106 1434.858643,204.253372 1451.369263,137.211777 
	C1449.412476,137.089645 1448.107300,136.938919 1446.801880,136.937363 
	C1432.469116,136.920364 1418.134033,137.064255 1403.804932,136.834137 
	C1400.008179,136.773163 1398.716553,138.058578 1397.958008,141.669189 
	C1388.200073,188.119324 1378.280640,234.535583 1368.382690,280.956238 
	C1368.153931,282.028748 1367.699829,283.053192 1367.350952,284.100037 
	C1365.912842,282.329620 1365.587158,280.739258 1365.248779,279.151611 
	C1355.389160,232.893494 1345.513672,186.638702 1335.705688,140.369598 
	C1335.161499,137.802689 1334.075439,136.844482 1331.365723,136.868332 
	C1317.034058,136.994522 1302.699829,137.003723 1288.368408,136.864548 
	C1285.505493,136.836746 1284.276245,137.687881 1283.658691,140.541229 
	C1273.797974,186.110611 1263.830200,231.656845 1253.914185,277.214264 
	C1253.184814,280.565125 1252.663696,283.961273 1252.045776,287.336365 
	C1250.795166,283.796204 1250.316040,280.342255 1249.596802,276.938995 
	C1240.710938,234.895050 1231.807861,192.854675 1222.851807,150.825607 
	C1221.888794,146.306076 1221.917480,140.160263 1219.026855,137.862549 
	C1216.110352,135.544189 1210.130493,137.079498 1204.495361,136.926483 
M1138.726807,205.833450 
	C1132.799316,194.304581 1123.748047,186.340729 1111.344727,182.526230 
	C1099.340820,178.834610 1087.182373,178.540039 1074.823486,181.121323 
	C1062.234741,183.750595 1053.854736,192.344315 1045.486938,202.562454 
	C1046.152710,175.282959 1046.775391,149.768555 1047.399414,124.200546 
	C1028.632568,124.200546 1011.201782,124.200546 993.489136,124.200546 
	C993.489136,195.477737 993.489136,266.480743 993.489136,337.567535 
	C1011.415344,337.567535 1028.964722,337.567535 1046.966797,337.567535 
	C1046.966797,335.404663 1046.962524,333.603241 1046.967407,331.801849 
	C1047.031372,307.981659 1046.784302,284.154694 1047.301270,260.344299 
	C1047.538818,249.400726 1048.545532,238.302383 1055.849854,229.094894 
	C1061.085571,222.494934 1068.162476,220.776917 1075.965576,221.927704 
	C1083.295044,223.008636 1087.315796,228.350861 1088.768066,235.032364 
	C1090.204468,241.641449 1091.011230,248.508408 1091.079224,255.272446 
	C1091.337158,280.923370 1091.183594,306.578430 1091.183838,332.231934 
	C1091.183960,333.994507 1091.183960,335.757050 1091.183960,337.661682 
	C1109.485229,337.661682 1127.060303,337.661682 1144.847778,337.661682 
	C1144.987671,336.624420 1145.188232,335.832794 1145.187866,335.041260 
	C1145.171509,300.725891 1145.527954,266.402557 1144.830811,232.100708 
	C1144.656616,223.531418 1141.081421,215.031250 1138.726807,205.833450 
M1847.019897,205.506668 
	C1841.245728,200.315094 1836.126099,194.019577 1829.576416,190.135574 
	C1808.512207,177.644241 1785.504883,176.960846 1762.295288,182.182129 
	C1739.592651,187.289368 1723.497925,200.840759 1715.384644,222.934784 
	C1707.951538,243.176529 1707.171509,264.035065 1711.786133,284.939545 
	C1717.086182,308.949341 1731.072510,326.333679 1754.495117,334.449890 
	C1782.703369,344.224457 1811.227295,342.707184 1839.379395,333.495270 
	C1849.402100,330.215637 1849.290527,329.875214 1849.290527,319.197540 
	C1849.290527,309.947998 1849.290649,300.698456 1849.290649,292.007172 
	C1838.250000,295.033997 1827.836426,298.617676 1817.127441,300.631805 
	C1805.016479,302.909607 1792.619629,303.969116 1780.630615,299.292725 
	C1770.097656,295.184235 1763.733887,285.814545 1764.084839,274.379913 
	C1795.731445,274.379913 1827.410522,274.379913 1858.626099,274.379913 
	C1858.626099,261.535522 1859.134399,249.378159 1858.478149,237.283997 
	C1857.864868,225.981155 1853.882690,215.510117 1847.019897,205.506668 
M716.807251,283.432983 
	C716.205750,280.607086 715.604248,277.781189 714.833435,274.160034 
	C747.458313,274.160034 779.145264,274.160034 810.052368,274.160034 
	C810.052368,260.881104 811.283203,248.112762 809.799072,235.668213 
	C806.597778,208.825790 791.828369,190.612534 765.400330,183.092926 
	C748.457703,178.272217 731.201538,177.928131 714.009338,182.053955 
	C689.476746,187.941299 672.984558,202.917114 665.495239,226.978668 
	C659.388977,246.596542 658.828430,266.760162 663.761841,286.696198 
	C670.077209,312.216797 686.264709,328.764191 711.494812,336.435364 
	C728.593018,341.634003 746.038879,341.167053 763.516052,339.688263 
	C775.371033,338.685120 786.887878,336.034088 797.597534,330.646912 
	C798.984680,329.949188 800.795959,328.249115 800.822571,326.980011 
	C801.069702,315.190979 800.968811,303.394714 800.968811,290.867126 
	C798.709595,291.764832 797.046204,292.377502 795.420959,293.078888 
	C779.070923,300.135223 761.985352,303.313049 744.241516,302.002777 
	C732.078735,301.104675 722.011902,296.369293 716.807251,283.432983 
M555.502075,337.939453 
	C567.905273,337.939453 580.308533,337.939453 593.116211,337.939453 
	C593.116211,285.303009 593.116211,233.564896 593.116211,181.072876 
	C609.535339,181.072876 625.547913,181.072876 641.626526,181.072876 
	C641.626526,166.065750 641.626526,151.817123 641.626526,137.249741 
	C590.986267,137.249741 540.633362,137.249741 489.947968,137.249741 
	C489.947968,151.885330 489.947968,166.249207 489.947968,181.134689 
	C506.171143,181.134689 522.078613,181.134689 538.784180,181.134689 
	C538.784180,233.619507 538.784180,285.589935 538.784180,337.939423 
	C544.559448,337.939423 549.531616,337.939423 555.502075,337.939453 
M1681.901733,199.396423 
	C1682.760254,197.146591 1683.618774,194.896774 1684.535034,192.495422 
	C1671.405029,186.758240 1658.548950,182.216431 1644.901733,180.561493 
	C1626.347290,178.311478 1607.920044,178.648193 1590.338745,186.005157 
	C1576.223511,191.911636 1566.328247,201.862274 1564.269165,217.552628 
	C1561.968994,235.079529 1565.297974,251.555115 1581.026001,261.689606 
	C1592.944702,269.369415 1606.515503,274.474762 1619.303955,280.820557 
	C1623.755493,283.029449 1628.473877,285.000031 1632.338135,288.017212 
	C1637.247925,291.850708 1636.119629,297.762848 1630.155762,299.555511 
	C1625.629150,300.916138 1620.657837,301.477753 1615.918579,301.326630 
	C1600.124878,300.822968 1584.968384,297.034332 1570.265991,291.338287 
	C1568.356201,290.598419 1566.406860,289.960785 1563.886597,289.066803 
	C1563.886597,303.114349 1563.800903,316.250702 1564.029297,329.381561 
	C1564.050293,330.591400 1565.857056,332.419189 1567.197021,332.861237 
	C1593.213135,341.443298 1619.822144,343.291595 1646.548950,337.589539 
	C1665.644531,333.515656 1680.591675,323.316833 1684.599609,302.644318 
	C1688.392700,283.078918 1686.190552,264.659241 1668.214600,252.260437 
	C1660.623901,247.024826 1651.846313,243.456619 1643.456421,239.448547 
	C1635.502441,235.648758 1627.188965,232.572617 1619.391113,228.494400 
	C1617.288818,227.394867 1615.101807,223.556915 1615.487427,221.436859 
	C1615.854980,219.415604 1619.417236,216.766907 1621.769653,216.555115 
	C1627.489502,216.040176 1633.522949,215.914658 1639.066650,217.199997 
	C1649.531738,219.626480 1659.741333,223.155518 1670.537964,226.369431 
	C1674.124756,217.839523 1677.854370,208.970123 1681.901733,199.396423 
M911.172668,222.127563 
	C925.670898,219.807068 938.506592,225.848953 951.878540,230.713013 
	C957.174072,217.403091 962.313110,204.486542 967.481384,191.496429 
	C966.450684,190.859009 965.932556,190.458939 965.353149,190.191788 
	C944.032532,180.359802 921.620605,177.141327 898.548767,180.722504 
	C867.157654,185.594986 845.627625,202.588043 837.791809,234.224792 
	C832.901489,253.969284 833.415771,273.905304 839.269592,293.474548 
	C843.661682,308.157196 852.084717,320.117188 865.010925,328.607910 
	C875.572693,335.545502 887.465271,338.502350 899.868164,339.822662 
	C920.211731,341.988251 939.732178,339.673370 957.960693,329.630493 
	C961.100342,327.900726 962.418457,325.931244 962.328735,322.222870 
	C962.062744,311.235352 962.244812,300.237305 962.216187,289.243439 
	C962.212524,287.854767 961.996765,286.466614 961.827942,284.471313 
	C959.364685,285.802612 957.494385,286.811371 955.625854,287.823578 
	C944.309326,293.953674 932.232239,297.310974 919.362000,297.806427 
	C904.484375,298.379150 895.069763,291.864197 891.396301,277.519775 
	C888.155762,264.866119 888.250671,252.056519 892.576843,239.597565 
	C895.562134,231.000229 900.896362,224.450806 911.172668,222.127563 
M449.492401,337.946106 
	C454.066803,337.946106 458.641174,337.946106 463.256042,337.946106 
	C463.256042,285.618378 463.256042,234.093201 463.256042,182.542007 
	C445.344818,182.542007 427.798737,182.542007 410.259766,182.542007 
	C410.259766,234.445862 410.259766,285.959991 410.259766,337.946075 
	C423.256134,337.946075 435.875397,337.946075 449.492401,337.946106 
M1502.500000,337.936981 
	C1510.931763,337.936981 1519.363525,337.936981 1527.916016,337.936981 
	C1527.916016,285.735138 1527.916016,234.206543 1527.916016,182.507370 
	C1510.082397,182.507370 1492.546997,182.507370 1474.811768,182.507370 
	C1474.811768,234.375488 1474.811768,285.897705 1474.811768,337.936951 
	C1483.923096,337.936951 1492.711548,337.936951 1502.500000,337.936981 
M430.946655,397.557770 
	C427.364105,391.361969 423.803711,385.153198 420.191956,378.974457 
	C417.275299,373.984802 412.928436,371.210083 407.109497,371.191650 
	C388.297211,371.131958 369.483124,371.028839 350.672852,371.230713 
	C342.724121,371.316040 338.498810,378.737823 342.295898,385.770203 
	C346.643311,393.821960 351.325378,401.697418 356.014313,409.558655 
	C358.746277,414.138885 362.748810,416.756683 368.322052,416.744354 
	C387.300812,416.702332 406.280396,416.837769 425.258209,416.701843 
	C432.574799,416.649445 436.615723,410.423645 434.091980,403.496918 
	C433.415680,401.640747 432.251892,399.962250 430.946655,397.557770 
M1482.317017,123.696907 
	C1469.134644,133.816177 1469.820801,156.188568 1484.144287,163.352692 
	C1495.513550,169.039261 1507.829834,168.713913 1519.375488,163.384201 
	C1529.104858,158.892914 1530.898071,149.906555 1530.072388,140.153671 
	C1529.280029,130.791687 1524.842773,123.880630 1515.545776,121.392204 
	C1504.577148,118.456352 1493.527710,118.045494 1482.317017,123.696907 
M456.082855,162.690399 
	C465.440948,156.834763 466.362671,147.773575 465.112732,138.113708 
	C463.977600,129.341156 458.982758,123.407181 450.374268,121.197632 
	C441.241882,118.853607 431.985474,118.459198 422.810150,121.332710 
	C414.607666,123.901527 410.220337,129.733261 409.069092,137.988739 
	C407.775726,147.263428 408.194580,156.591431 417.179016,161.938400 
	C429.460236,169.247406 442.514252,168.430496 456.082855,162.690399 
z"/>
<path fill="#F1F1F1" opacity="1.000000" stroke="none" 
	d="
M1412.531372,0.999999 
	C1410.826294,2.765171 1408.818604,4.802184 1406.450195,6.248471 
	C1396.193726,12.511334 1379.946167,10.307076 1373.047241,1.340681 
	C1386.020874,1.000000 1399.041870,1.000000 1412.531372,0.999999 
z"/>
<path fill="#F1F1F1" opacity="1.000000" stroke="none" 
	d="
M648.466125,473.000000 
	C649.003174,469.088287 650.709045,465.987976 655.455811,465.983582 
	C659.773987,465.979584 661.885864,468.479980 662.999023,472.627625 
	C658.310730,473.000000 653.621521,473.000000 648.466125,473.000000 
z"/>
<path fill="#343434" opacity="1.000000" stroke="none" 
	d="
M99.955002,262.931885 
	C142.159958,189.736298 184.185089,116.859177 226.739120,43.064869 
	C285.449829,145.147736 343.806854,246.615646 402.515991,348.695770 
	C400.262238,348.800140 398.681549,348.937042 397.100830,348.937347 
	C340.272552,348.948120 283.444275,348.933990 226.616013,348.954041 
	C211.416489,348.959381 199.223602,343.362946 191.993027,329.545166 
	C180.502457,307.586548 194.854904,280.433411 219.562546,278.528717 
	C236.133575,277.251282 252.865128,278.053314 269.524933,277.933167 
	C272.519623,277.911591 275.514587,277.930115 279.764648,277.930115 
	C261.909668,246.984940 244.450500,216.725784 226.625610,185.832779 
	C225.242874,188.124969 224.283371,189.656891 223.380127,191.221298 
	C183.810181,259.755951 144.251160,328.296906 104.674591,396.827759 
	C96.885536,410.315308 82.100250,417.404022 67.525139,414.724365 
	C52.322098,411.929260 41.134819,400.980499 38.600605,386.067444 
	C37.161297,377.597656 38.478405,369.472778 42.817596,361.951538 
	C61.799965,329.049103 80.788727,296.150391 99.955002,262.931885 
z"/>
<path fill="#353535" opacity="1.000000" stroke="none" 
	d="
M1204.994141,136.926468 
	C1210.130493,137.079498 1216.110352,135.544189 1219.026855,137.862549 
	C1221.917480,140.160263 1221.888794,146.306076 1222.851807,150.825607 
	C1231.807861,192.854675 1240.710938,234.895050 1249.596802,276.938995 
	C1250.316040,280.342255 1250.795166,283.796204 1252.045776,287.336365 
	C1252.663696,283.961273 1253.184814,280.565125 1253.914185,277.214264 
	C1263.830200,231.656845 1273.797974,186.110611 1283.658691,140.541229 
	C1284.276245,137.687881 1285.505493,136.836746 1288.368408,136.864548 
	C1302.699829,137.003723 1317.034058,136.994522 1331.365723,136.868332 
	C1334.075439,136.844482 1335.161499,137.802689 1335.705688,140.369598 
	C1345.513672,186.638702 1355.389160,232.893494 1365.248779,279.151611 
	C1365.587158,280.739258 1365.912842,282.329620 1367.350952,284.100037 
	C1367.699829,283.053192 1368.153931,282.028748 1368.382690,280.956238 
	C1378.280640,234.535583 1388.200073,188.119324 1397.958008,141.669189 
	C1398.716553,138.058578 1400.008179,136.773163 1403.804932,136.834137 
	C1418.134033,137.064255 1432.469116,136.920364 1446.801880,136.937363 
	C1448.107300,136.938919 1449.412476,137.089645 1451.369263,137.211777 
	C1434.858643,204.253372 1418.430908,270.959106 1401.935059,337.941315 
	C1394.060059,337.941315 1386.578247,337.941437 1379.096313,337.941315 
	C1366.596802,337.941162 1354.097046,337.909332 1341.597778,337.968079 
	C1339.200684,337.979340 1337.623169,337.691223 1337.021240,334.769989 
	C1328.452515,293.179779 1319.763306,251.614441 1311.100342,210.043640 
	C1310.738892,208.309647 1310.351318,206.581131 1310.226807,206.007370 
	C1301.026978,248.064163 1291.597046,290.959351 1282.341309,333.892120 
	C1281.606934,337.298706 1280.103516,338.022217 1276.952026,338.001160 
	C1258.620117,337.878723 1240.285767,337.826721 1221.955566,338.035583 
	C1218.180664,338.078552 1216.875122,336.805054 1216.004272,333.259430 
	C1202.854370,279.722839 1189.548950,226.224503 1176.288452,172.715088 
	C1173.804565,162.692276 1171.347290,152.662842 1168.906616,142.629410 
	C1168.519043,141.036499 1168.284912,139.406311 1167.815796,136.926483 
	C1180.358765,136.926483 1192.427124,136.926483 1204.994141,136.926468 
z"/>
<path fill="#353535" opacity="1.000000" stroke="none" 
	d="
M1138.898193,206.166382 
	C1141.081421,215.031250 1144.656616,223.531418 1144.830811,232.100708 
	C1145.527954,266.402557 1145.171509,300.725891 1145.187866,335.041260 
	C1145.188232,335.832794 1144.987671,336.624420 1144.847778,337.661682 
	C1127.060303,337.661682 1109.485229,337.661682 1091.183960,337.661682 
	C1091.183960,335.757050 1091.183960,333.994507 1091.183838,332.231934 
	C1091.183594,306.578430 1091.337158,280.923370 1091.079224,255.272446 
	C1091.011230,248.508408 1090.204468,241.641449 1088.768066,235.032364 
	C1087.315796,228.350861 1083.295044,223.008636 1075.965576,221.927704 
	C1068.162476,220.776917 1061.085571,222.494934 1055.849854,229.094894 
	C1048.545532,238.302383 1047.538818,249.400726 1047.301270,260.344299 
	C1046.784302,284.154694 1047.031372,307.981659 1046.967407,331.801849 
	C1046.962524,333.603241 1046.966797,335.404663 1046.966797,337.567535 
	C1028.964722,337.567535 1011.415344,337.567535 993.489136,337.567535 
	C993.489136,266.480743 993.489136,195.477737 993.489136,124.200546 
	C1011.201782,124.200546 1028.632568,124.200546 1047.399414,124.200546 
	C1046.775391,149.768555 1046.152710,175.282959 1045.486938,202.562454 
	C1053.854736,192.344315 1062.234741,183.750595 1074.823486,181.121323 
	C1087.182373,178.540039 1099.340820,178.834610 1111.344727,182.526230 
	C1123.748047,186.340729 1132.799316,194.304581 1138.898193,206.166382 
z"/>
<path fill="#353535" opacity="1.000000" stroke="none" 
	d="
M1847.231689,205.796112 
	C1853.882690,215.510117 1857.864868,225.981155 1858.478149,237.283997 
	C1859.134399,249.378159 1858.626099,261.535522 1858.626099,274.379913 
	C1827.410522,274.379913 1795.731445,274.379913 1764.084839,274.379913 
	C1763.733887,285.814545 1770.097656,295.184235 1780.630615,299.292725 
	C1792.619629,303.969116 1805.016479,302.909607 1817.127441,300.631805 
	C1827.836426,298.617676 1838.250000,295.033997 1849.290649,292.007172 
	C1849.290649,300.698456 1849.290527,309.947998 1849.290527,319.197540 
	C1849.290527,329.875214 1849.402100,330.215637 1839.379395,333.495270 
	C1811.227295,342.707184 1782.703369,344.224457 1754.495117,334.449890 
	C1731.072510,326.333679 1717.086182,308.949341 1711.786133,284.939545 
	C1707.171509,264.035065 1707.951538,243.176529 1715.384644,222.934784 
	C1723.497925,200.840759 1739.592651,187.289368 1762.295288,182.182129 
	C1785.504883,176.960846 1808.512207,177.644241 1829.576416,190.135574 
	C1836.126099,194.019577 1841.245728,200.315094 1847.231689,205.796112 
M1809.815186,233.679153 
	C1805.990845,220.371796 1796.320068,214.094559 1783.231812,216.424026 
	C1772.009521,218.421387 1764.285889,228.675629 1765.344116,240.283905 
	C1780.311157,240.283905 1795.283569,240.283905 1810.596558,240.283905 
	C1810.370728,238.037704 1810.190430,236.243561 1809.815186,233.679153 
z"/>
<path fill="#353535" opacity="1.000000" stroke="none" 
	d="
M716.929932,283.803375 
	C722.011902,296.369293 732.078735,301.104675 744.241516,302.002777 
	C761.985352,303.313049 779.070923,300.135223 795.420959,293.078888 
	C797.046204,292.377502 798.709595,291.764832 800.968811,290.867126 
	C800.968811,303.394714 801.069702,315.190979 800.822571,326.980011 
	C800.795959,328.249115 798.984680,329.949188 797.597534,330.646912 
	C786.887878,336.034088 775.371033,338.685120 763.516052,339.688263 
	C746.038879,341.167053 728.593018,341.634003 711.494812,336.435364 
	C686.264709,328.764191 670.077209,312.216797 663.761841,286.696198 
	C658.828430,266.760162 659.388977,246.596542 665.495239,226.978668 
	C672.984558,202.917114 689.476746,187.941299 714.009338,182.053955 
	C731.201538,177.928131 748.457703,178.272217 765.400330,183.092926 
	C791.828369,190.612534 806.597778,208.825790 809.799072,235.668213 
	C811.283203,248.112762 810.052368,260.881104 810.052368,274.160034 
	C779.145264,274.160034 747.458313,274.160034 714.833435,274.160034 
	C715.604248,277.781189 716.205750,280.607086 716.929932,283.803375 
M761.977234,236.694138 
	C761.701843,235.394012 761.479065,234.080109 761.142944,232.795883 
	C757.991089,220.753250 747.959839,214.370407 735.316895,216.342331 
	C723.893921,218.123978 715.978271,228.286758 716.765259,240.697952 
	C730.997559,240.697952 745.267883,240.751694 759.535034,240.563812 
	C760.386719,240.552597 761.212952,238.607040 761.977234,236.694138 
z"/>
<path fill="#353535" opacity="1.000000" stroke="none" 
	d="
M555.002930,337.939453 
	C549.531616,337.939423 544.559448,337.939423 538.784180,337.939423 
	C538.784180,285.589935 538.784180,233.619507 538.784180,181.134689 
	C522.078613,181.134689 506.171143,181.134689 489.947968,181.134689 
	C489.947968,166.249207 489.947968,151.885330 489.947968,137.249741 
	C540.633362,137.249741 590.986267,137.249741 641.626526,137.249741 
	C641.626526,151.817123 641.626526,166.065750 641.626526,181.072876 
	C625.547913,181.072876 609.535339,181.072876 593.116211,181.072876 
	C593.116211,233.564896 593.116211,285.303009 593.116211,337.939453 
	C580.308533,337.939453 567.905273,337.939453 555.002930,337.939453 
z"/>
<path fill="#353535" opacity="1.000000" stroke="none" 
	d="
M1681.742920,199.748566 
	C1677.854370,208.970123 1674.124756,217.839523 1670.537964,226.369431 
	C1659.741333,223.155518 1649.531738,219.626480 1639.066650,217.199997 
	C1633.522949,215.914658 1627.489502,216.040176 1621.769653,216.555115 
	C1619.417236,216.766907 1615.854980,219.415604 1615.487427,221.436859 
	C1615.101807,223.556915 1617.288818,227.394867 1619.391113,228.494400 
	C1627.188965,232.572617 1635.502441,235.648758 1643.456421,239.448547 
	C1651.846313,243.456619 1660.623901,247.024826 1668.214600,252.260437 
	C1686.190552,264.659241 1688.392700,283.078918 1684.599609,302.644318 
	C1680.591675,323.316833 1665.644531,333.515656 1646.548950,337.589539 
	C1619.822144,343.291595 1593.213135,341.443298 1567.197021,332.861237 
	C1565.857056,332.419189 1564.050293,330.591400 1564.029297,329.381561 
	C1563.800903,316.250702 1563.886597,303.114349 1563.886597,289.066803 
	C1566.406860,289.960785 1568.356201,290.598419 1570.265991,291.338287 
	C1584.968384,297.034332 1600.124878,300.822968 1615.918579,301.326630 
	C1620.657837,301.477753 1625.629150,300.916138 1630.155762,299.555511 
	C1636.119629,297.762848 1637.247925,291.850708 1632.338135,288.017212 
	C1628.473877,285.000031 1623.755493,283.029449 1619.303955,280.820557 
	C1606.515503,274.474762 1592.944702,269.369415 1581.026001,261.689606 
	C1565.297974,251.555115 1561.968994,235.079529 1564.269165,217.552628 
	C1566.328247,201.862274 1576.223511,191.911636 1590.338745,186.005157 
	C1607.920044,178.648193 1626.347290,178.311478 1644.901733,180.561493 
	C1658.548950,182.216431 1671.405029,186.758240 1684.535034,192.495422 
	C1683.618774,194.896774 1682.760254,197.146591 1681.742920,199.748566 
z"/>
<path fill="#353535" opacity="1.000000" stroke="none" 
	d="
M910.747803,222.202881 
	C900.896362,224.450806 895.562134,231.000229 892.576843,239.597565 
	C888.250671,252.056519 888.155762,264.866119 891.396301,277.519775 
	C895.069763,291.864197 904.484375,298.379150 919.362000,297.806427 
	C932.232239,297.310974 944.309326,293.953674 955.625854,287.823578 
	C957.494385,286.811371 959.364685,285.802612 961.827942,284.471313 
	C961.996765,286.466614 962.212524,287.854767 962.216187,289.243439 
	C962.244812,300.237305 962.062744,311.235352 962.328735,322.222870 
	C962.418457,325.931244 961.100342,327.900726 957.960693,329.630493 
	C939.732178,339.673370 920.211731,341.988251 899.868164,339.822662 
	C887.465271,338.502350 875.572693,335.545502 865.010925,328.607910 
	C852.084717,320.117188 843.661682,308.157196 839.269592,293.474548 
	C833.415771,273.905304 832.901489,253.969284 837.791809,234.224792 
	C845.627625,202.588043 867.157654,185.594986 898.548767,180.722504 
	C921.620605,177.141327 944.032532,180.359802 965.353149,190.191788 
	C965.932556,190.458939 966.450684,190.859009 967.481384,191.496429 
	C962.313110,204.486542 957.174072,217.403091 951.878540,230.713013 
	C938.506592,225.848953 925.670898,219.807068 910.747803,222.202881 
z"/>
<path fill="#363636" opacity="1.000000" stroke="none" 
	d="
M448.993530,337.946106 
	C435.875397,337.946075 423.256134,337.946075 410.259766,337.946075 
	C410.259766,285.959991 410.259766,234.445862 410.259766,182.542007 
	C427.798737,182.542007 445.344818,182.542007 463.256042,182.542007 
	C463.256042,234.093201 463.256042,285.618378 463.256042,337.946106 
	C458.641174,337.946106 454.066803,337.946106 448.993530,337.946106 
z"/>
<path fill="#343434" opacity="1.000000" stroke="none" 
	d="
M1502.000000,337.936951 
	C1492.711548,337.936951 1483.923096,337.936951 1474.811768,337.936951 
	C1474.811768,285.897705 1474.811768,234.375488 1474.811768,182.507370 
	C1492.546997,182.507370 1510.082397,182.507370 1527.916016,182.507370 
	C1527.916016,234.206543 1527.916016,285.735138 1527.916016,337.936981 
	C1519.363525,337.936981 1510.931763,337.936981 1502.000000,337.936951 
z"/>
<path fill="#F76E0F" opacity="1.000000" stroke="none" 
	d="
M431.129272,397.879974 
	C432.251892,399.962250 433.415680,401.640747 434.091980,403.496918 
	C436.615723,410.423645 432.574799,416.649445 425.258209,416.701843 
	C406.280396,416.837769 387.300812,416.702332 368.322052,416.744354 
	C362.748810,416.756683 358.746277,414.138885 356.014313,409.558655 
	C351.325378,401.697418 346.643311,393.821960 342.295898,385.770203 
	C338.498810,378.737823 342.724121,371.316040 350.672852,371.230713 
	C369.483124,371.028839 388.297211,371.131958 407.109497,371.191650 
	C412.928436,371.210083 417.275299,373.984802 420.191956,378.974457 
	C423.803711,385.153198 427.364105,391.361969 431.129272,397.879974 
z"/>
<path fill="#373737" opacity="1.000000" stroke="none" 
	d="
M1482.618896,123.485184 
	C1493.527710,118.045494 1504.577148,118.456352 1515.545776,121.392204 
	C1524.842773,123.880630 1529.280029,130.791687 1530.072388,140.153671 
	C1530.898071,149.906555 1529.104858,158.892914 1519.375488,163.384201 
	C1507.829834,168.713913 1495.513550,169.039261 1484.144287,163.352692 
	C1469.820801,156.188568 1469.134644,133.816177 1482.618896,123.485184 
z"/>
<path fill="#373737" opacity="1.000000" stroke="none" 
	d="
M455.763306,162.878830 
	C442.514252,168.430496 429.460236,169.247406 417.179016,161.938400 
	C408.194580,156.591431 407.775726,147.263428 409.069092,137.988739 
	C410.220337,129.733261 414.607666,123.901527 422.810150,121.332710 
	C431.985474,118.459198 441.241882,118.853607 450.374268,121.197632 
	C458.982758,123.407181 463.977600,129.341156 465.112732,138.113708 
	C466.362671,147.773575 465.440948,156.834763 455.763306,162.878830 
z"/>
<path fill="#F7F7F7" opacity="1.000000" stroke="none" 
	d="
M1809.912598,234.064301 
	C1810.190430,236.243561 1810.370728,238.037704 1810.596558,240.283905 
	C1795.283569,240.283905 1780.311157,240.283905 1765.344116,240.283905 
	C1764.285889,228.675629 1772.009521,218.421387 1783.231812,216.424026 
	C1796.320068,214.094559 1805.990845,220.371796 1809.912598,234.064301 
z"/>
<path fill="#F7F7F7" opacity="1.000000" stroke="none" 
	d="
M762.014160,237.127869 
	C761.212952,238.607040 760.386719,240.552597 759.535034,240.563812 
	C745.267883,240.751694 730.997559,240.697952 716.765259,240.697952 
	C715.978271,228.286758 723.893921,218.123978 735.316895,216.342331 
	C747.959839,214.370407 757.991089,220.753250 761.142944,232.795883 
	C761.479065,234.080109 761.701843,235.394012 762.014160,237.127869 
z"/>
</svg>