<?xml version="1.0" standalone="no"?>
<!DOCTYPE svg PUBLIC "-//W3C//DTD SVG 20010904//EN"
 "http://www.w3.org/TR/2001/REC-SVG-20010904/DTD/svg10.dtd">
<svg version="1.0" xmlns="http://www.w3.org/2000/svg"
 width="585.000000pt" height="427.000000pt" viewBox="0 0 585.000000 427.000000"
 preserveAspectRatio="xMidYMid meet">

<g transform="translate(0.000000,427.000000) scale(0.100000,-0.100000)"
fill="#000000" stroke="none">
<path d="M2825 3866 c-34 -15 -85 -70 -85 -91 0 -10 -15 -13 -52 -12 -104 2
-161 -55 -156 -156 3 -50 0 -58 -17 -63 -33 -10 -74 -56 -81 -90 -12 -62 45
-134 106 -134 17 0 20 -6 20 -38 0 -64 68 -114 125 -92 23 9 32 7 50 -10 12
-11 28 -20 36 -20 10 0 14 -14 14 -57 0 -32 3 -69 6 -83 3 -14 4 -19 2 -12 -6
17 -78 15 -144 -4 -63 -19 -538 -254 -588 -291 -43 -33 -75 -104 -68 -153 l5
-38 -66 -7 c-36 -4 -199 -5 -363 -3 -289 3 -298 2 -326 -18 -55 -41 -54 -3
-51 -1248 3 -1252 0 -1175 59 -1210 25 -15 180 -16 1734 -16 1505 0 1709 2
1735 15 64 33 60 -40 60 1230 0 1008 -2 1161 -15 1189 -30 63 -6 61 -610 62
l-550 0 -40 66 c-22 36 -105 169 -185 296 -129 206 -148 231 -168 227 -20 -3
-22 -1 -12 10 7 8 27 24 46 36 38 23 42 41 17 67 -14 13 -18 33 -17 79 0 55 3
65 27 83 29 23 47 74 40 113 -3 14 -20 44 -39 66 -19 21 -34 43 -34 49 0 5 -9
21 -21 36 -12 16 -18 33 -14 45 7 24 -15 80 -43 104 -25 23 -92 33 -120 18
-17 -9 -22 -7 -35 13 -33 49 -119 69 -182 42z m105 -386 c0 -5 -5 -10 -11 -10
-5 0 -7 5 -4 10 3 6 8 10 11 10 2 0 4 -4 4 -10z m84 -20 c-6 -6 -10 -2 -11 12
-2 16 1 18 10 9 7 -7 8 -14 1 -21z m70 -4 c-3 -9 -13 -12 -27 -8 -21 6 -21 6
3 13 14 4 26 7 27 8 1 1 0 -5 -3 -13z m56 -10 c0 -9 -7 -12 -20 -9 -11 3 -17
9 -14 14 8 14 34 10 34 -5z m-155 -6 c-3 -5 -12 -7 -20 -3 -9 3 -26 -2 -40
-11 -32 -21 -39 -20 -17 3 17 19 89 30 77 11z m-137 -17 c-10 -2 -23 -22 -29
-43 -12 -39 -33 -58 -44 -39 -4 5 -10 7 -15 4 -4 -3 -6 5 -2 17 5 21 4 22 -12
9 -13 -11 -16 -23 -12 -45 4 -22 3 -27 -4 -16 -14 22 -12 46 6 64 21 21 34 20
34 -3 0 -11 4 -22 9 -26 13 -7 31 27 31 59 0 22 4 26 28 25 16 -1 20 -3 10 -6z
m156 -8 c-4 -8 -13 -15 -22 -15 -13 0 -12 3 4 15 24 18 25 18 18 0z m116 -5
c0 -5 -8 -10 -17 -10 -15 0 -16 2 -3 10 19 12 20 12 20 0z m28 -102 c-3 -95
-2 -103 16 -103 10 0 25 -10 34 -23 14 -21 13 -22 -12 -22 -68 0 -116 -43
-101 -91 6 -16 10 -18 23 -8 10 6 4 0 -11 -15 -15 -14 -36 -26 -46 -26 -11 0
-24 -12 -31 -29 -16 -39 -38 -58 -75 -65 -27 -6 -27 -5 5 7 43 17 75 70 83
139 6 47 20 78 35 76 21 -2 32 3 26 14 -4 6 -3 8 4 4 25 -15 39 33 38 139 -1
58 3 105 7 105 5 0 7 -46 5 -102z m-81 70 c-3 -8 -6 -5 -6 6 -1 11 2 17 5 13
3 -3 4 -12 1 -19z m-13 -43 c3 -8 1 -15 -4 -15 -6 0 -10 7 -10 15 0 8 2 15 4
15 2 0 6 -7 10 -15z m-34 -20 c7 -8 21 -15 31 -15 11 0 19 -5 19 -11 0 -7 -7
-8 -17 -4 -10 4 -23 8 -30 8 -7 0 -11 5 -10 11 1 6 -6 10 -15 10 -10 -1 -15 2
-12 7 8 13 20 11 34 -6z m67 -7 c-3 -8 -6 -5 -6 6 -1 11 2 17 5 13 3 -3 4 -12
1 -19z m-262 -8 c3 -6 -1 -7 -9 -4 -18 7 -21 14 -7 14 6 0 13 -4 16 -10z m-39
-16 c10 -8 14 -13 7 -10 -8 5 -13 -7 -16 -36 l-4 -43 -1 47 c-1 26 -7 49 -14
51 -7 3 -8 6 -2 6 5 1 19 -6 30 -15z m214 -6 c0 -5 -9 -4 -20 2 -11 6 -20 12
-20 14 0 2 9 2 20 -1 11 -3 20 -9 20 -15z m253 -88 c3 -11 -2 -25 -11 -32 -13
-11 -14 -11 -7 2 5 8 8 23 7 33 -4 23 4 22 11 -3z m-268 -48 c-6 -7 -34 11
-29 19 3 5 11 3 19 -4 7 -6 12 -13 10 -15z m-55 -28 c0 -11 5 -14 18 -9 13 5
14 4 5 -6 -10 -10 -15 -9 -28 1 -17 14 -20 30 -5 30 6 0 10 -7 10 -16z m-75
-134 c3 -5 1 -10 -4 -10 -6 0 -11 5 -11 10 0 6 2 10 4 10 3 0 8 -4 11 -10z
m-25 -25 c13 -14 21 -25 18 -25 -2 0 -15 11 -28 25 -13 14 -21 25 -18 25 2 0
15 -11 28 -25z m266 -200 c31 -48 1 -139 -54 -164 -36 -17 -83 -13 -118 11
-54 37 -65 117 -21 155 21 18 21 18 4 -7 -57 -83 38 -196 124 -149 17 9 18 13
8 27 -11 14 -11 15 1 5 21 -19 28 -16 45 17 27 53 14 120 -25 120 -24 0 -33
-14 -41 -65 l-6 -40 -2 35 c-2 70 52 105 85 55z m-126 -31 c0 -12 -12 -36 -26
-51 l-26 -28 21 29 c24 32 27 65 9 86 -11 12 -10 12 5 1 9 -7 17 -24 17 -37z
m-414 -159 c16 -47 11 -51 -57 -54 -59 -2 -109 6 -109 20 0 10 131 79 144 76
4 -2 14 -20 22 -42z m-260 -406 l247 -280 22 21 22 20 13 -25 c19 -35 71 -67
87 -53 9 7 13 7 13 -1 0 -6 14 -11 31 -11 27 0 30 2 19 15 -7 9 5 4 28 -11 23
-15 42 -34 42 -41 0 -8 5 -11 12 -7 7 4 8 3 4 -5 -5 -7 3 -23 18 -38 14 -14
26 -24 26 -21 0 13 -35 74 -47 81 -7 5 -11 12 -8 18 4 5 -1 9 -10 9 -9 0 -13
5 -10 10 3 6 1 10 -5 10 -7 0 -10 7 -6 15 3 8 -1 21 -8 27 -11 11 -9 17 11 35
27 26 34 28 30 12 -1 -6 4 -14 11 -16 7 -3 11 1 10 9 -4 15 -39 38 -50 32 -5
-3 -8 1 -8 8 0 9 -3 9 -10 -2 -8 -12 -10 -11 -10 8 0 21 -13 27 -49 22 -7 -1
1 13 18 32 25 27 28 35 18 49 -7 9 -74 92 -149 183 -76 92 -138 169 -138 171
0 3 442 5 983 5 l982 0 0 -1170 0 -1170 -1497 0 -1498 0 0 1170 0 1170 305 0
304 0 247 -281z m331 -261 c-3 -7 -5 -2 -5 12 0 14 2 19 5 13 2 -7 2 -19 0
-25z m50 -43 c0 -8 -4 -12 -9 -9 -5 3 -6 10 -3 15 9 13 12 11 12 -6z"/>
<path d="M2923 2013 c15 -2 37 -2 50 0 12 2 0 4 -28 4 -27 0 -38 -2 -22 -4z"/>
<path d="M2857 1944 c-11 -12 3 -24 27 -24 13 0 29 7 36 15 11 13 7 15 -22 15
-19 0 -38 -3 -41 -6z"/>
<path d="M2888 1587 c-192 -72 -281 -270 -199 -443 75 -159 242 -228 411 -170
79 27 163 115 186 193 20 69 20 160 -1 224 -20 58 -95 141 -160 175 -62 32
-179 42 -237 21z"/>
<path d="M3789 1461 c-61 -12 -124 -56 -159 -111 -100 -156 -2 -358 185 -377
144 -15 269 98 268 242 0 70 -18 117 -64 170 -54 61 -149 92 -230 76z"/>
<path d="M2150 1291 c0 -5 12 -11 27 -14 26 -5 26 -4 8 9 -22 16 -35 18 -35 5z"/>
<path d="M1983 1283 c9 -2 23 -2 30 0 6 3 -1 5 -18 5 -16 0 -22 -2 -12 -5z"/>
<path d="M1990 1236 c0 -17 5 -26 16 -26 10 0 14 7 12 22 -5 32 -28 35 -28 4z"/>
<path d="M2142 1238 c2 -13 8 -23 13 -23 6 0 11 10 13 23 2 15 -2 22 -13 22
-11 0 -15 -7 -13 -22z"/>
<path d="M2015 1150 c-4 -6 20 -10 64 -10 41 0 71 4 71 10 0 6 -28 10 -64 10
-36 0 -68 -4 -71 -10z"/>
<path d="M2692 655 c-8 -18 -19 -25 -38 -25 -26 0 -26 -1 -11 -18 10 -10 17
-31 17 -46 0 -23 3 -27 18 -21 9 4 22 7 27 7 6 0 18 -3 28 -7 13 -6 17 -2 17
18 0 13 7 30 15 37 18 15 10 30 -16 30 -12 0 -23 10 -29 25 -5 14 -11 25 -13
25 -2 0 -9 -11 -15 -25z"/>
<path d="M2929 657 c-8 -19 -20 -27 -37 -27 -24 0 -24 0 -7 -26 9 -14 14 -35
12 -46 -4 -15 -2 -18 11 -12 22 9 42 9 65 -1 15 -6 17 -4 12 17 -4 16 -1 29 9
37 22 18 20 31 -4 31 -11 0 -25 12 -34 27 l-14 28 -13 -28z"/>
<path d="M3162 655 c-8 -17 -20 -25 -37 -25 l-26 0 20 -22 c15 -15 19 -29 14
-46 -5 -22 -3 -24 13 -17 22 9 31 9 61 0 18 -6 21 -4 16 14 -3 13 1 29 11 40
18 20 12 31 -15 31 -11 0 -21 10 -25 25 -3 14 -9 25 -13 25 -4 0 -13 -11 -19
-25z"/>
<path d="M2450 650 c-6 -11 -20 -20 -30 -20 -23 0 -26 -13 -6 -29 7 -6 11 -22
8 -36 -5 -28 0 -30 29 -15 14 8 25 6 44 -6 26 -17 26 -17 20 9 -4 16 -1 34 10
51 17 26 17 26 -8 26 -17 0 -28 7 -32 20 -3 11 -10 20 -15 20 -5 0 -14 -9 -20
-20z"/>
<path d="M5191 883 c-26 -22 -44 -91 -35 -141 11 -72 47 -182 63 -196 30 -27
65 -29 86 -5 30 32 27 182 -4 263 -36 91 -67 114 -110 79z"/>
<path d="M5515 758 c-91 -48 -155 -122 -155 -180 0 -64 11 -87 45 -94 67 -12
130 38 209 171 38 62 44 93 24 113 -18 18 -78 14 -123 -10z"/>
<path d="M5061 367 c-31 -15 -46 -40 -38 -61 5 -11 19 -16 51 -16 53 0 93 -14
123 -42 44 -41 85 23 52 84 -22 42 -134 63 -188 35z"/>
</g>
</svg>
