<?xml version="1.0" standalone="no"?>
<!DOCTYPE svg PUBLIC "-//W3C//DTD SVG 20010904//EN"
 "http://www.w3.org/TR/2001/REC-SVG-20010904/DTD/svg10.dtd">
<svg version="1.0" xmlns="http://www.w3.org/2000/svg"
 width="500.000000pt" height="500.000000pt" viewBox="0 0 500.000000 500.000000"
 preserveAspectRatio="xMidYMid meet">

<g transform="translate(0.000000,500.000000) scale(0.100000,-0.100000)"
fill="#000000" stroke="none">
<path d="M3020 4737 c-52 -29 -171 -97 -265 -151 -93 -55 -227 -132 -297 -172
-71 -41 -188 -109 -260 -151 -73 -42 -216 -125 -318 -183 -102 -59 -243 -141
-315 -182 -71 -41 -204 -118 -295 -170 -91 -52 -205 -119 -255 -147 -49 -29
-146 -85 -214 -124 -100 -57 -126 -77 -137 -103 -12 -28 -14 -214 -14 -1077 0
-717 3 -1054 11 -1075 12 -36 54 -55 96 -43 15 5 69 33 119 62 49 30 127 74
172 99 l81 45 1 123 0 124 -42 -24 c-24 -14 -91 -52 -151 -87 -59 -34 -112
-59 -117 -56 -7 4 -10 324 -10 909 0 846 1 905 18 924 9 12 85 60 167 107 83
48 269 156 415 239 536 309 917 529 1010 583 52 31 124 72 160 93 36 21 168
97 293 170 126 72 235 129 243 126 11 -4 14 -38 14 -180 l0 -175 -57 -34 c-77
-45 -584 -337 -648 -372 -27 -15 -54 -31 -60 -35 -5 -4 -118 -69 -250 -145
-132 -76 -265 -153 -295 -170 -203 -117 -480 -276 -560 -322 -52 -30 -101 -59
-107 -65 -8 -7 -13 -36 -13 -79 0 -61 3 -70 24 -84 23 -15 30 -12 217 96 107
62 255 147 329 189 74 42 225 129 335 192 110 64 286 165 390 225 105 61 282
163 395 228 294 170 296 171 503 289 l187 108 0 57 c0 63 -19 101 -52 101 -11
0 -72 -30 -135 -66 -63 -36 -117 -63 -120 -61 -2 3 -4 95 -3 206 1 222 -7 263
-55 281 -36 14 -29 16 -135 -43z m440 -451 c0 -20 -29 -41 -40 -30 -6 6 -4 18
6 32 16 23 34 21 34 -2z m-83 -43 c2 -6 -4 -19 -14 -29 -17 -17 -18 -17 -21 0
-8 37 24 63 35 29z m-82 -43 c8 -13 -13 -40 -31 -40 -17 0 -18 22 -2 38 15 15
25 15 33 2z"/>
<path d="M2985 3784 c-117 -69 -121 -72 -114 -78 5 -5 209 110 229 130 28 27
-6 12 -115 -52z"/>
<path d="M2762 3693 c-7 -2 -17 -14 -23 -26 -11 -21 -11 -21 11 1 18 19 24 21
37 10 14 -11 15 -11 12 1 -6 17 -18 22 -37 14z"/>
<path d="M2768 3573 c-14 -13 -20 -14 -32 -3 -11 9 -16 9 -16 1 0 -23 32 -24
53 -2 12 11 19 21 16 21 -2 0 -12 -7 -21 -17z"/>
<path d="M4107 3494 c-4 -4 -28 -7 -54 -8 -43 -1 -48 -3 -51 -26 -2 -14 -8
-35 -14 -47 -10 -20 -7 -27 25 -57 21 -19 37 -40 37 -46 0 -6 8 -14 18 -18 12
-5 6 -9 -23 -13 l-40 -6 36 -2 c29 -1 38 -6 44 -23 l7 -23 7 24 c10 36 37 50
57 29 21 -21 11 -68 -16 -75 -28 -7 -25 -30 9 -64 36 -36 64 -37 97 -4 13 13
33 29 44 35 13 7 20 21 20 39 0 17 7 31 15 35 11 4 15 18 14 43 -1 21 2 48 6
60 5 17 -2 30 -34 62 -23 23 -46 41 -52 41 -6 0 -18 7 -26 16 -9 9 -26 14 -40
11 -12 -2 -28 2 -34 9 -12 15 -41 19 -52 8z"/>
<path d="M2200 3329 c-108 -62 -172 -110 -95 -71 38 19 196 110 204 118 2 2 2
6 0 8 -3 3 -52 -22 -109 -55z"/>
<path d="M1962 3233 c-7 -2 -17 -14 -24 -26 -11 -22 -11 -22 10 -3 12 10 28
16 37 12 11 -4 15 -2 13 6 -5 14 -18 18 -36 11z"/>
<path d="M3240 3229 c0 -5 5 -7 10 -4 6 3 10 8 10 11 0 2 -4 4 -10 4 -5 0 -10
-5 -10 -11z"/>
<path d="M3320 3229 c0 -5 5 -7 10 -4 6 3 10 8 10 11 0 2 -4 4 -10 4 -5 0 -10
-5 -10 -11z"/>
<path d="M3691 3186 c-13 -7 -39 -11 -58 -9 -30 3 -40 -2 -76 -39 -23 -24 -50
-48 -60 -53 -18 -10 -18 -14 10 -93 15 -45 31 -82 34 -82 9 0 -4 56 -25 104
-22 52 -21 54 22 73 60 25 116 56 130 70 35 34 48 17 92 -119 23 -73 44 -137
47 -144 3 -8 -26 -29 -71 -54 -42 -23 -76 -46 -76 -51 0 -10 124 54 149 77 12
11 7 36 -34 166 -26 84 -50 156 -54 160 -3 4 -17 1 -30 -6z"/>
<path d="M1921 3164 c0 -11 3 -14 6 -6 3 7 2 16 -1 19 -3 4 -6 -2 -5 -13z"/>
<path d="M3000 3139 c0 -5 5 -7 10 -4 6 3 10 8 10 11 0 2 -4 4 -10 4 -5 0 -10
-5 -10 -11z"/>
<path d="M1924 3110 c1 -8 10 -16 21 -17 15 -1 15 0 3 3 -9 3 -19 11 -21 17
-2 7 -3 5 -3 -3z"/>
<path d="M4205 3064 c-38 -17 -92 -18 -98 -1 -2 6 -11 -2 -20 -20 -15 -28 -23
-32 -72 -38 -67 -9 -88 -30 -171 -172 -31 -54 -63 -109 -71 -122 l-15 -23 -34
33 c-38 37 -58 34 -81 -11 -15 -30 -6 -46 56 -111 74 -77 106 -67 203 63 l53
72 6 -414 c6 -413 14 -538 58 -870 l16 -125 34 -3 c18 -2 38 1 43 6 26 26 48
409 28 482 -9 32 -6 93 16 398 3 39 9 72 13 72 10 0 21 -102 21 -199 0 -93 35
-362 66 -512 4 -24 3 -26 -20 -22 -27 6 -64 -21 -46 -32 5 -3 10 -15 10 -26 0
-11 7 -22 15 -25 8 -4 15 -12 15 -18 0 -23 69 -89 86 -82 8 3 20 6 25 6 5 0 9
17 9 38 0 36 -1 37 -37 37 -20 0 -38 5 -40 11 -2 6 10 8 32 6 l35 -4 0 94 c0
71 4 99 16 117 14 20 16 41 11 135 -3 61 -10 124 -16 140 -8 21 -9 56 -1 130
14 132 17 354 7 488 l-8 106 30 7 c16 3 32 13 35 22 4 8 1 66 -4 127 -19 193
-38 232 -111 229 -25 -1 -47 3 -53 11 -9 11 -16 11 -41 0z"/>
<path d="M2036 3001 c-59 -34 -121 -81 -91 -70 25 9 165 92 171 100 10 16 -10
9 -80 -30z"/>
<path d="M2757 2963 c-4 -3 -7 -11 -7 -17 0 -6 5 -5 12 2 6 6 9 14 7 17 -3 3
-9 2 -12 -2z"/>
<path d="M3243 2950 c-42 -25 -68 -83 -68 -153 0 -47 4 -62 19 -73 26 -19 29
-18 66 12 18 16 29 33 26 41 -3 8 -2 12 3 9 13 -8 31 49 31 96 0 73 -28 98
-77 68z m27 -94 c0 -3 -4 -8 -10 -11 -5 -3 -10 -1 -10 4 0 6 5 11 10 11 6 0
10 -2 10 -4z"/>
<path d="M2670 2949 c0 -5 5 -7 10 -4 6 3 10 8 10 11 0 2 -4 4 -10 4 -5 0 -10
-5 -10 -11z"/>
<path d="M2590 2879 c0 -5 5 -7 10 -4 6 3 10 8 10 11 0 2 -4 4 -10 4 -5 0 -10
-5 -10 -11z"/>
<path d="M2510 2859 c0 -5 5 -7 10 -4 6 3 10 8 10 11 0 2 -4 4 -10 4 -5 0 -10
-5 -10 -11z"/>
<path d="M2947 2780 c-48 -38 -73 -162 -41 -208 22 -32 48 -27 82 14 36 43 57
112 48 155 -12 61 -43 75 -89 39z m77 -45 c-4 -8 -11 -15 -16 -15 -6 0 -5 6 2
15 7 8 14 15 16 15 2 0 1 -7 -2 -15z m-41 -50 c-10 -13 -22 -25 -27 -25 -9 0
11 29 29 42 17 13 17 9 -2 -17z"/>
<path d="M3245 2674 c-22 -13 -35 -24 -30 -24 12 0 75 38 75 45 0 6 2 7 -45
-21z"/>
<path d="M1267 2683 c-12 -12 -7 -22 8 -17 8 4 15 10 15 15 0 11 -14 12 -23 2z"/>
<path d="M1270 2650 c-8 -5 -11 -12 -7 -16 4 -4 13 -2 19 4 15 15 7 24 -12 12z"/>
<path d="M2105 2550 c-3 -5 -1 -10 4 -10 6 0 11 5 11 10 0 6 -2 10 -4 10 -3 0
-8 -4 -11 -10z"/>
<path d="M2957 2509 c-22 -11 -37 -23 -34 -25 5 -5 77 35 77 42 0 6 -1 5 -43
-17z"/>
<path d="M1267 2483 c-10 -10 -8 -43 2 -43 9 0 21 24 21 41 0 11 -14 12 -23 2z"/>
<path d="M1940 2389 c0 -5 5 -7 10 -4 6 3 10 8 10 11 0 2 -4 4 -10 4 -5 0 -10
-5 -10 -11z"/>
<path d="M1500 2269 c-109 -63 -132 -79 -113 -79 13 0 233 128 233 135 0 11
-20 1 -120 -56z"/>
<path d="M1270 2234 c0 -14 3 -14 15 -4 8 7 15 14 15 16 0 2 -7 4 -15 4 -8 0
-15 -7 -15 -16z"/>
<path d="M2455 2210 c3 -5 8 -10 11 -10 2 0 4 5 4 10 0 6 -5 10 -11 10 -5 0
-7 -4 -4 -10z"/>
<path d="M1380 1985 c0 -8 2 -15 4 -15 2 0 6 7 10 15 3 8 1 15 -4 15 -6 0 -10
-7 -10 -15z"/>
<path d="M1380 1915 c0 -8 2 -15 4 -15 2 0 6 7 10 15 3 8 1 15 -4 15 -6 0 -10
-7 -10 -15z"/>
<path d="M1380 1845 c0 -8 2 -15 4 -15 2 0 6 7 10 15 3 8 1 15 -4 15 -6 0 -10
-7 -10 -15z"/>
<path d="M2260 1768 c-85 -50 -200 -117 -255 -148 -55 -31 -124 -71 -153 -88
-29 -18 -57 -32 -62 -32 -26 0 -1 -20 88 -71 121 -71 159 -83 234 -76 61 5
101 23 243 107 44 26 117 69 163 95 46 27 87 56 93 66 5 10 9 40 9 67 0 37 -5
53 -22 70 -28 25 -159 102 -173 101 -5 0 -80 -41 -165 -91z"/>
<path d="M1380 1775 c0 -8 2 -15 4 -15 2 0 6 7 10 15 3 8 1 15 -4 15 -6 0 -10
-7 -10 -15z"/>
<path d="M1380 1705 c0 -8 2 -15 4 -15 2 0 6 7 10 15 3 8 1 15 -4 15 -6 0 -10
-7 -10 -15z"/>
<path d="M1380 1635 c0 -8 2 -15 4 -15 2 0 6 7 10 15 3 8 1 15 -4 15 -6 0 -10
-7 -10 -15z"/>
<path d="M1380 1565 c0 -8 2 -15 4 -15 2 0 6 7 10 15 3 8 1 15 -4 15 -6 0 -10
-7 -10 -15z"/>
<path d="M1381 1494 c0 -11 3 -14 6 -6 3 7 2 16 -1 19 -3 4 -6 -2 -5 -13z"/>
<path d="M3025 1367 c-66 -41 -156 -97 -200 -125 -44 -28 -114 -72 -155 -97
-41 -25 -89 -57 -107 -69 l-32 -23 22 -20 c26 -24 13 -28 207 57 338 148 393
172 433 194 40 21 42 24 41 66 -1 34 -7 48 -28 67 -15 13 -35 23 -44 23 -10 0
-71 -33 -137 -73z"/>
<path d="M4004 1280 c-6 -6 -46 -25 -89 -43 -125 -52 -127 -87 -5 -87 80 0
213 40 218 65 2 9 1 27 -2 39 -4 18 -12 22 -43 22 -21 0 -45 3 -53 7 -9 4 -20
3 -26 -3z"/>
<path d="M1945 1125 c-154 -33 -275 -125 -275 -206 0 -21 2 -20 23 9 45 60
132 110 240 139 85 23 270 22 356 0 97 -26 181 -72 228 -125 l42 -47 -8 37
c-20 86 -107 150 -258 189 -90 22 -255 25 -348 4z"/>
<path d="M1623 795 c2 -39 11 -84 20 -100 34 -67 108 -121 224 -166 79 -30
324 -39 425 -15 137 32 265 119 295 199 6 18 12 54 12 80 l1 49 -32 -43 c-66
-86 -189 -148 -336 -169 -94 -14 -156 -12 -256 5 -161 28 -288 99 -334 186
l-23 44 4 -70z"/>
</g>
</svg>
